<svg width="29" height="30" viewBox="0 0 29 30" fill="none" xmlns="http://www.w3.org/2000/svg">
<path d="M14.4444 0.946777C6.5 0.946777 0 7.43233 0 15.4201C0 22.6423 5.28667 28.6368 12.1911 29.7201V19.609H8.52222V15.4201H12.1911V12.2279C12.1911 8.60233 14.3433 6.609 17.6511 6.609C19.2256 6.609 20.8722 6.88344 20.8722 6.88344V10.4512H19.0522C17.2611 10.4512 16.6978 11.5634 16.6978 12.7046V15.4201H20.7133L20.0633 19.609H16.6978V29.7201C20.1015 29.1826 23.201 27.4459 25.4366 24.8235C27.6722 22.2012 28.8966 18.866 28.8889 15.4201C28.8889 7.43233 22.3889 0.946777 14.4444 0.946777Z" fill="#211D70"/>
</svg>
