<svg width="30" height="30" viewBox="0 0 30 30" fill="none" xmlns="http://www.w3.org/2000/svg">
<path d="M8.60007 0.888672H20.7334C25.3556 0.888672 29.1112 4.64423 29.1112 9.26645V21.3998C29.1112 23.6217 28.2285 25.7526 26.6574 27.3238C25.0862 28.8949 22.9553 29.7776 20.7334 29.7776H8.60007C3.97785 29.7776 0.22229 26.022 0.22229 21.3998V9.26645C0.22229 7.04453 1.10495 4.9136 2.67608 3.34247C4.24722 1.77133 6.37814 0.888672 8.60007 0.888672ZM8.31118 3.77756C6.93205 3.77756 5.60941 4.32542 4.63422 5.30061C3.65903 6.27579 3.11118 7.59844 3.11118 8.97756V21.6887C3.11118 24.5631 5.43673 26.8887 8.31118 26.8887H21.0223C22.4014 26.8887 23.7241 26.3408 24.6992 25.3656C25.6744 24.3904 26.2223 23.0678 26.2223 21.6887V8.97756C26.2223 6.10312 23.8967 3.77756 21.0223 3.77756H8.31118ZM22.2501 5.94423C22.7289 5.94423 23.1882 6.13446 23.5268 6.47306C23.8654 6.81167 24.0556 7.27092 24.0556 7.74978C24.0556 8.22865 23.8654 8.6879 23.5268 9.0265C23.1882 9.36511 22.7289 9.55534 22.2501 9.55534C21.7712 9.55534 21.312 9.36511 20.9733 9.0265C20.6347 8.6879 20.4445 8.22865 20.4445 7.74978C20.4445 7.27092 20.6347 6.81167 20.9733 6.47306C21.312 6.13446 21.7712 5.94423 22.2501 5.94423ZM14.6667 8.11089C16.5822 8.11089 18.4192 8.87181 19.7736 10.2262C21.128 11.5807 21.889 13.4177 21.889 15.3331C21.889 17.2486 21.128 19.0856 19.7736 20.44C18.4192 21.7944 16.5822 22.5553 14.6667 22.5553C12.7513 22.5553 10.9143 21.7944 9.55985 20.44C8.20542 19.0856 7.44451 17.2486 7.44451 15.3331C7.44451 13.4177 8.20542 11.5807 9.55985 10.2262C10.9143 8.87181 12.7513 8.11089 14.6667 8.11089ZM14.6667 10.9998C13.5175 10.9998 12.4153 11.4563 11.6026 12.269C10.7899 13.0816 10.3334 14.1838 10.3334 15.3331C10.3334 16.4824 10.7899 17.5846 11.6026 18.3972C12.4153 19.2099 13.5175 19.6665 14.6667 19.6665C15.816 19.6665 16.9182 19.2099 17.7309 18.3972C18.5435 17.5846 19.0001 16.4824 19.0001 15.3331C19.0001 14.1838 18.5435 13.0816 17.7309 12.269C16.9182 11.4563 15.816 10.9998 14.6667 10.9998Z" fill="#211D70"/>
</svg>
