<svg width="27" height="27" viewBox="0 0 27 27" fill="none" xmlns="http://www.w3.org/2000/svg">
<path d="M23.7779 0.333496C24.544 0.333496 25.2788 0.63786 25.8206 1.17963C26.3624 1.7214 26.6667 2.4562 26.6667 3.22238V23.4446C26.6667 24.2108 26.3624 24.9456 25.8206 25.4874C25.2788 26.0291 24.544 26.3335 23.7779 26.3335H3.55564C2.78946 26.3335 2.05466 26.0291 1.51288 25.4874C0.971112 24.9456 0.666748 24.2108 0.666748 23.4446V3.22238C0.666748 2.4562 0.971112 1.7214 1.51288 1.17963C2.05466 0.63786 2.78946 0.333496 3.55564 0.333496H23.7779ZM23.0556 22.7224V15.0668C23.0556 13.818 22.5595 12.6202 21.6764 11.7371C20.7933 10.8541 19.5956 10.3579 18.3467 10.3579C17.119 10.3579 15.689 11.1091 14.9956 12.2357V10.6324H10.9656V22.7224H14.9956V15.6013C14.9956 14.4891 15.8912 13.5791 17.0034 13.5791C17.5397 13.5791 18.0541 13.7921 18.4333 14.1713C18.8126 14.5506 19.0256 15.0649 19.0256 15.6013V22.7224H23.0556ZM6.27119 8.36461C6.91478 8.36461 7.53202 8.10894 7.98711 7.65385C8.44219 7.19877 8.69786 6.58153 8.69786 5.93794C8.69786 4.59461 7.61453 3.49683 6.27119 3.49683C5.62377 3.49683 5.00286 3.75402 4.54507 4.21181C4.08727 4.66961 3.83008 5.29052 3.83008 5.93794C3.83008 7.28127 4.92786 8.36461 6.27119 8.36461ZM8.27897 22.7224V10.6324H4.27786V22.7224H8.27897Z" fill="#211D70"/>
</svg>
